<?xml version="1.0" encoding="UTF-8"?>
<!DOCTYPE svg  PUBLIC '-//W3C//DTD SVG 20010904//EN'  'http://www.w3.org/TR/2001/REC-SVG-20010904/DTD/svg10.dtd'>
<svg width="1580pt" height="1217pt" version="1.0" viewBox="0 0 1580.000000 1217.000000" xmlns="http://www.w3.org/2000/svg">
<metadata>Created by potrace 1.15, written by Peter Selinger 2001-2017</metadata>
<g transform="translate(0 1217) scale(.1 -.1)">
<path fill="white" d="m590 11100c8-5 2065-1192 4570-2639 2505-1446 4554-2633 4552-2638-2-4-2052-1191-4555-2636-2504-1446-4559-2632-4567-2637-9-6 1177-10 2940-10h2956l4564 2635c2510 1449 4568 2639 4572 2643 5 5-2047 1195-4567 2650l-4576 2642h-2952c-1788 0-2946-4-2937-10z"/>
</g>
</svg>
