<?xml version="1.0" encoding="UTF-8"?>
<!DOCTYPE svg  PUBLIC '-//W3C//DTD SVG 20010904//EN'  'http://www.w3.org/TR/2001/REC-SVG-20010904/DTD/svg10.dtd'>
<svg fill="cyan" width="899pt" height="758pt" version="1.0" viewBox="0 0 899.000000 858.000000" xmlns="http://www.w3.org/2000/svg">
<metadata>Created by potrace 1.15, written by Peter Selinger 2001-2017</metadata>
<g transform="translate(0 758) scale(.1 -.1)">
<path d="m720 5905v-1675h-360-360v-440-440h360 360v-1675-1675h830 830v440 440h-390-390v2910 2910h390 390v440 440h-830-830v-1675z"/>
<path d="m6610 7140v-440h390 390v-2910-2910h-390-390v-440-440h830 830v1675 1675h360 360v440 440h-360-360v1675 1675h-830-830v-440z"/>
<path d="m3890 6186v-324l-32-7c-61-13-272-96-340-133l-68-37-227 227-228 227-424-425-424-425 221-222c122-122 222-228 222-235s-11-35-25-62-34-74-46-105c-11-30-23-55-27-55s-23-50-42-110l-35-110h-322-323v-600-600h323 322l35-110c19-60 38-110 42-110s16-25 27-55c12-31 32-78 46-105s25-55 25-62-100-113-222-235l-222-222 425-425 424-425 228 227 227 227 68-37c68-37 279-120 340-133l32-7v-324-324h605 605v324 324l33 7c59 13 270 95 339 133l68 37 227-227 228-227 425 425 424 425-222 222c-122 122-222 228-222 235s11 35 25 62 34 74 46 105c11 30 23 55 27 55s23 50 42 110l35 110h323 322v600 600h-322-323l-35 110c-19 60-38 110-42 110s-16 25-27 55c-12 31-32 78-46 105s-25 55-25 62 100 113 222 235l222 222-425 425-424 425-228-227-227-227-68 37c-69 38-280 120-339 133l-33 7v324 324h-605-605v-324zm790-1310c100-16 223-57 300-99 30-17 69-38 86-47 80-42 232-180 308-280 84-111 166-276 166-336 0-8 4-14 9-14s15-39 21-87c7-49 17-92 21-97 5-6 9-62 9-126s-4-120-9-125c-4-6-14-49-21-97-6-49-16-88-21-88s-9-6-9-14c0-60-81-225-166-336-74-97-229-239-306-279-18-10-58-31-88-48-272-150-698-150-970 0-30 17-69 38-86 47-80 42-232 180-308 280-67 87-133 209-152 280-10 36-21 67-25 70s-13 43-20 90-16 89-21 95c-11 12-11 238 1 251 4 5 14 48 21 97 6 48 16 87 21 87s9 6 9 14c0 60 82 225 166 336 76 100 228 238 308 280 17 9 56 30 86 47 74 40 198 83 290 98 102 17 277 18 380 1z"/>
</g>
</svg>
