<?xml version="1.0" encoding="UTF-8"?>
<!DOCTYPE svg  PUBLIC '-//W3C//DTD SVG 20010904//EN'  'http://www.w3.org/TR/2001/REC-SVG-20010904/DTD/svg10.dtd'>
<svg fill="cyan" width="1600pt" height="1600pt" version="1.0" viewBox="0 0 1600.000000 1800.000000" xmlns="http://www.w3.org/2000/svg">
<metadata>Created by potrace 1.15, written by Peter Selinger 2001-2017</metadata>
<g transform="translate(0 1600) scale(.1 -.1)">
<path  d="m3197 12802l-2137-2137 1570-1570 1570-1570 470 470 470 470-1100 1100-1100 1100 1198 1198 1197 1197 363-362 362-363-600-600-600-600 470-470 470-470 600 600 600 600 268-268 267-267 470 470 470 470-1570 1570-1570 1570-2138-2138z"/>
<path  d="m11260 13601l-805-799 1200-1201c660-661 1205-1201 1212-1201 11 0 1585 1581 1591 1598 1 4-537 546-1195 1204l-1198 1198-805-799z"/>
<path  d="m5898 8274l-3898-3865v-1205-1204h1204 1205l3412 3443c1877 1893 3618 3648 3868 3900l456 457-1170 1170c-644 644-1172 1170-1175 1170-3-1-1759-1740-3902-3866z"/>
<path  d="m11327 7932l-468-468 267-233 266-233-598-599-599-599 470-470 470-470 599 599 599 599 362-395 362-395-151-148c-83-81-621-605-1196-1164l-1045-1015-1100 1099-1100 1100-470-470-470-470 1571-1571 1571-1571 2137 2103 2137 2103-1568 1568c-862 862-1570 1568-1573 1568s-216-211-473-468z"/>
</g>
</svg>
