<?xml version="1.0" encoding="UTF-8"?>
<!DOCTYPE svg  PUBLIC '-//W3C//DTD SVG 20010904//EN'  'http://www.w3.org/TR/2001/REC-SVG-20010904/DTD/svg10.dtd'>
<svg width="1473pt" height="1482pt" version="1.0" viewBox="0 0 1473.000000 1482.000000" xmlns="http://www.w3.org/2000/svg">
<g transform="translate(0 1482) scale(.1 -.1)" fill="#00FFFF">
<path d="m3730 11349c-1999-1908-3657-3492-3685-3519l-50-50h722 722l418 398c229 218 530 505 668 636 2435 2325 4814 4594 4827 4604 16 13 58-26 4853-4604 138-131 439-418 668-636l418-398h719c396 0 720 2 720 5 0 2-1610 1540-3577 3416-1968 1877-3625 3458-3683 3514l-105 102-3635-3468z"/>
<path d="m2728 7987l-498-472v-3757-3758h5135 5135v3758 3757l-498 472-497 473-3-3730-2-3730h-4135-4135l-2 3730-3 3730-497-473z"/>
</g>
</svg>
