<?xml version="1.0" encoding="UTF-8"?>
<svg fill="cyan" width="1534.7pt" height="944.5pt" version="1.0" viewBox="0 0 1534.7065 1100" xmlns="http://www.w3.org/2000/svg" xmlns:cc="http://creativecommons.org/ns#" xmlns:dc="http://purl.org/dc/elements/1.1/" xmlns:rdf="http://www.w3.org/1999/02/22-rdf-syntax-ns#">
<metadata>Created by potrace 1.15, written by Peter Selinger 2001-2017
<rdf:RDF>
<cc:Work rdf:about="">
<dc:format>image/svg+xml</dc:format>
<dc:type rdf:resource="http://purl.org/dc/dcmitype/StillImage"/>
</cc:Work>
</rdf:RDF>
</metadata>
<g transform="matrix(.1 0 0 -.1 -.64672 1044.5)">
<path  d="m6429 9843c-679-333-1238-609-1244-614-6-6-4-14 5-24 8-7 411-207 895-443s999-488 1145-559 307-150 358-174l92-45 93 45c50 24 211 103 357 174s661 323 1145 559 887 436 895 443c9 10 11 18 5 24-17 17-2468 1213-2490 1216-12 1-577-270-1256-602z"/>
<path  d="m4992 7413 3-1556 1080-531c1483-730 1385-683 1395-666 6 9 10 647 10 1565v1550l-812 395c-447 217-941 457-1098 533-416 204-551 267-566 267-12 0-14-251-12-1557z"/>
<path  d="m10255 8929c-96-47-482-235-1563-759l-812-395v-1550c0-918 4-1556 10-1565 10-17-88-64 1395 666l1080 531 3 1556c2 1478 1 1557-15 1556-10 0-54-18-98-40z"/>
<path  d="m1444 5785c-785-1570-1431-2855-1436-2855-4 0 0-8 10-18 20-20 3797-1912 3817-1912 6 0 871 430 1921 955s1916 955 1924 955 874-430 1924-955 1915-955 1921-955c20 0 3797 1892 3817 1912 10 10 14 18 10 18-5 0-651 1285-1436 2855s-1433 2855-1439 2855c-7 0-407-395-890-877l-877-878v-1206l-240-116c-214-103-239-118-235-137 9-34 575-2998 575-3007 0-4-595 290-1322 654l-1323 662-3 358c-2 315-4 357-18 357-8 0-116-30-240-66l-224-66-224 66c-124 36-232 66-240 66-14 0-16-42-18-357l-3-358-1322-662c-728-364-1323-658-1323-654 0 9 566 2973 575 3007 4 19-21 34-235 137l-240 116v1206l-877 878c-483 482-883 877-890 877-6 0-654-1285-1439-2855zm2314 617 473-467-71-350c-39-192-111-548-160-790-455-2257-506-2504-513-2511s-2157 1069-2157 1080c0 5 410 823 911 1818l911 1808 66-60c37-33 280-270 540-528zm9361-1220c501-995 911-1813 911-1818 0-11-2150-1087-2157-1080s-58 254-513 2511c-49 242-120 598-159 790l-72 350 218 215c668 659 852 840 856 840 3 0 415-814 916-1808z"/>
</g>
</svg>
